<?xml version="1.0" encoding="UTF-8"?>
<svg id="Layer_2" data-name="Layer 2" xmlns="http://www.w3.org/2000/svg" viewBox="0 0 171.17 43.71">
  <defs>
    <style>
      .cls-1 {
        fill: #231f20;
        stroke: #231f20;
        stroke-miterlimit: 10;
      }
    </style>
  </defs>
  <g id="Layer_1-2" data-name="Layer 1">
    <path class="cls-1" d="M.5.5v42.71h170.17V.5H.5ZM50.61,34.37c0,1.25-1.01,2.26-2.26,2.26h-16.14c-1.25,0-2.26-1.01-2.26-2.26V9.34c0-1.25,1.01-2.26,2.26-2.26h16.14c1.25,0,2.26,1.01,2.26,2.26v25.03ZM107.32,34.37c0,1.25-1.01,2.26-2.26,2.26h-16.14c-1.25,0-2.26-1.01-2.26-2.26V9.34c0-1.25,1.01-2.26,2.26-2.26h16.14c1.25,0,2.26,1.01,2.26,2.26v25.03ZM160.85,34.37c0,1.25-1.01,2.26-2.26,2.26h-16.14c-1.25,0-2.26-1.01-2.26-2.26V9.34c0-1.25,1.01-2.26,2.26-2.26h16.14c1.25,0,2.26,1.01,2.26,2.26v25.03Z"/>
  </g>
</svg>